<?xml version="1.0" standalone="no"?>
<!DOCTYPE svg PUBLIC "-//W3C//DTD SVG 20010904//EN"
 "http://www.w3.org/TR/2001/REC-SVG-20010904/DTD/svg10.dtd">
<svg version="1.0" xmlns="http://www.w3.org/2000/svg"
 width="260.000000pt" height="260.000000pt" viewBox="0 0 260.000000 260.000000"
 preserveAspectRatio="xMidYMid meet">
<metadata>
Created by potrace 1.11, written by Peter Selinger 2001-2013
</metadata>
<g transform="translate(0.000000,260.000000) scale(0.100000,-0.100000)"
fill="#000000" stroke="none">
<path d="M203 2582 c-100 -35 -171 -115 -193 -216 -8 -36 -10 -361 -8 -1096
l3 -1045 28 -57 c32 -64 80 -111 146 -142 46 -21 49 -21 1121 -21 1072 0 1075
0 1121 21 66 31 114 78 146 142 l28 57 0 1075 c0 1072 0 1075 -21 1121 -31 66
-78 114 -142 146 l-57 28 -1060 2 c-997 2 -1063 1 -1112 -15z m1187 -381 c0
-72 6 -81 51 -81 10 0 60 -13 111 -30 222 -71 397 -224 498 -434 34 -71 51
-125 75 -238 5 -27 7 -28 75 -28 l70 0 0 -90 0 -90 -69 0 c-72 0 -81 -6 -81
-51 0 -10 -13 -60 -30 -111 -71 -222 -224 -397 -434 -498 -71 -34 -125 -51
-238 -75 -27 -5 -28 -7 -28 -75 l0 -70 -90 0 -90 0 0 69 c0 72 -6 81 -51 81
-10 0 -60 13 -111 30 -222 71 -397 224 -498 434 -34 71 -51 125 -75 238 -5 27
-7 28 -75 28 l-70 0 0 90 0 90 69 0 c72 0 81 6 81 51 0 10 13 60 30 111 71
222 224 397 434 498 71 34 125 51 239 75 26 5 27 7 27 75 l0 70 90 0 90 0 0
-69z"/>
<path d="M1205 1939 c-79 -12 -116 -24 -206 -70 -236 -122 -375 -387 -339
-649 13 -95 27 -137 75 -229 94 -179 274 -302 483 -331 315 -43 624 166 708
480 22 85 23 234 1 319 -67 253 -282 444 -541 480 -86 12 -96 12 -181 0z m241
-328 c140 -65 226 -227 195 -371 -60 -279 -388 -382 -586 -184 -135 135 -134
353 1 489 104 104 253 129 390 66z"/>
</g>
</svg>
